<svg width="40" height="40" viewBox="0 0 40 40" fill="none" xmlns="http://www.w3.org/2000/svg">
<path fill-rule="evenodd" clip-rule="evenodd" d="M17.4516 0.164863C3.98335 1.88978 -3.94903 16.5814 2.00744 28.7693C9.34423 43.7816 30.8504 43.6449 38.0759 28.54C44.7976 14.4883 32.9444 -1.81933 17.4516 0.164863ZM22.9555 2.67719C37.8708 5.46047 42.7045 24.3192 30.9083 33.7059C29.5131 34.8162 26.448 36.5271 25.8542 36.5271C25.8398 36.5271 25.8282 35.2487 25.8282 33.6863C25.8282 30.68 25.7799 30.1469 25.437 29.372C25.2282 28.9 25.2064 28.9309 25.8866 28.7347C27.8443 28.1699 30.0098 26.6886 31.1931 25.1048C33.5355 21.9693 33.6273 16.9813 31.4035 13.6828L31.1145 13.254L31.2002 12.5859C31.8759 7.31672 29.7368 5.90777 25.1017 8.5691L24.1912 9.09194L23.4308 8.93606C21.069 8.45173 18.8926 8.45163 16.5314 8.93576L15.7722 9.09144L14.793 8.53207C11.6457 6.734 9.7577 6.75915 9.05761 8.60852C8.69484 9.56648 8.57678 11.1499 8.76091 12.5859L8.84664 13.254L8.55762 13.6828C6.33381 16.9813 6.42562 21.9693 8.76799 25.1048C9.9527 26.6905 12.1164 28.1697 14.0802 28.7364C14.5614 28.8752 14.6812 28.9384 14.6476 29.0357C14.4403 29.6369 14.2126 30.3838 14.1591 30.6383C14.082 31.0055 13.7913 31.1312 12.9969 31.1413C12.0252 31.1536 11.4729 30.7971 10.6877 29.6507C9.58275 28.0373 8.26002 27.1709 6.90206 27.1709H6.39269L6.44019 27.5803C6.46624 27.8054 6.51135 28.3311 6.54029 28.7484L6.59298 29.5072L6.87392 29.558C7.51393 29.6737 8.0713 30.1455 8.7659 31.1596C10.058 33.0461 11.878 33.892 13.8492 33.5222L14.133 33.4689V34.998C14.133 35.8389 14.1213 36.5271 14.1069 36.5271C13.9856 36.5271 12.3951 35.8218 11.8034 35.5056C1.15796 29.8177 -0.807175 15.6813 7.88917 7.34826C10.7829 4.57526 13.9096 3.10952 18.2263 2.50214C18.8986 2.40754 22.1567 2.52809 22.9555 2.67719ZM12.4957 10.064C12.8173 10.2148 13.5333 10.6068 14.0869 10.935C15.2885 11.6479 15.4459 11.6686 17.0299 11.3233C19.0996 10.8722 20.977 10.8797 23.0828 11.3473C24.6089 11.6862 24.6404 11.6815 25.8777 10.9279C27.4246 9.98574 28.5961 9.51499 28.7486 9.77426C28.9143 10.056 28.896 11.8318 28.7183 12.6992C28.5103 13.7148 28.5486 13.8979 29.1399 14.7222C30.7581 16.9774 31.0796 20.1562 29.9259 22.4929C28.6648 25.0472 26.3907 26.4273 22.4755 27.0145C21.8538 27.1078 21.3 27.198 21.245 27.215C21.1516 27.2439 21.5108 27.8136 22.7751 29.6419C23.4229 30.5787 23.4248 30.5914 23.4676 34.1216L23.505 37.2129L23.2827 37.2579C22.2325 37.4704 21.8101 37.5017 19.9806 37.5017C18.1511 37.5017 17.7286 37.4704 16.6784 37.2579L16.4561 37.2129L16.4935 34.1216C16.5363 30.5914 16.5382 30.5787 17.186 29.6419C18.4503 27.8136 18.8095 27.2439 18.7161 27.215C18.6611 27.198 18.1073 27.1078 17.4856 27.0145C15.2805 26.6838 13.8081 26.1883 12.5569 25.3558C9.07088 23.0362 8.29804 18.3253 10.8148 14.7351C11.4159 13.8775 11.4505 13.7132 11.2428 12.6992C11.0746 11.8782 11.0504 10.1235 11.2024 9.77406C11.2775 9.60131 11.7206 9.70061 12.4957 10.064Z" fill="white"/>
</svg>
