<svg width="13" height="18" viewBox="0 0 13 18" fill="none" xmlns="http://www.w3.org/2000/svg">
<path fill-rule="evenodd" clip-rule="evenodd" d="M5.32288 0.0799653C1.12054 0.797369 -1.21591 5.32002 0.649192 9.12679C0.942377 9.72526 5.99159 17.8254 6.12928 17.9182C6.29197 18.0278 6.56784 18.0272 6.7317 17.9169C6.83675 17.8461 10.9626 11.041 11.8441 9.48455C13.5319 6.50436 12.5699 2.73689 9.66148 0.936497C8.4092 0.161311 6.75702 -0.164835 5.32288 0.0799653ZM7.19306 1.15616C10.3828 1.68322 12.3386 4.94612 11.3075 8.0202C11.1285 8.55378 11.0313 8.72488 8.61654 12.754L6.42166 16.4164L4.12699 12.7189C1.71109 8.82605 1.58905 8.62037 1.41912 8.15478C0.0411032 4.3789 3.23893 0.50279 7.19306 1.15616ZM5.65663 3.22784C3.23079 3.76101 2.33707 6.82367 4.09452 8.58107C5.87454 10.3611 8.95352 9.43495 9.4523 6.96945C9.90323 4.74017 7.87454 2.74039 5.65663 3.22784ZM6.9846 4.3503C8.4744 4.85434 8.91215 6.70042 7.80587 7.81375C6.84862 8.77713 5.23709 8.5652 4.54028 7.38432C3.5761 5.75031 5.19244 3.74397 6.9846 4.3503Z" fill="white"/>
</svg>
