<svg width="18" height="16" viewBox="0 0 18 16" fill="none" xmlns="http://www.w3.org/2000/svg">
<path fill-rule="evenodd" clip-rule="evenodd" d="M4.55274 1.68492C0.50544 3.19629 0.291555 3.28044 0.1494 3.41773L0 3.56205L0.000225 9.5691C0.00045 15.3945 0.002475 15.5792 0.066735 15.6767C0.271935 15.9879 0.767385 15.9966 0.971145 15.6924C1.05215 15.5715 1.0656 15.5707 1.12563 15.6828C1.29065 15.9911 1.8212 15.9924 2.03189 15.6849C2.17908 15.4701 2.15478 15.3598 1.58202 13.6426L1.05471 12.0614V8.31292V4.56442L2.11815 4.9611L3.18164 5.35777L3.19923 7.39078C3.21327 9.01726 3.22659 9.4476 3.26579 9.54268C4.45572 12.4297 13.5443 12.4297 14.7342 9.54268C14.7734 9.4476 14.7867 9.01731 14.8008 7.39101L14.8184 5.35822L16.2774 4.81485C17.9886 4.17756 18 4.17072 18 3.78124C18 3.35932 18.3484 3.5193 13.4473 1.69059C9.79727 0.328663 9.13203 0.0907033 8.98241 0.0933133C8.84129 0.0957883 7.96842 0.409438 4.55274 1.68492ZM12.4766 2.50045C14.335 3.19435 15.8555 3.77071 15.8555 3.78124C15.8555 3.81517 9.09104 6.32986 9 6.32977C8.95167 6.32977 7.70589 5.87892 6.2316 5.32794L3.55113 4.32615L6.38982 4.3086C9.51818 4.2892 9.30888 4.30527 9.46188 4.0732C9.55013 3.93937 9.55013 3.62311 9.46188 3.48928C9.30888 3.25722 9.51818 3.27328 6.38973 3.25389L3.55095 3.23634L6.24911 2.22613C7.73312 1.67052 8.9811 1.22106 9.0225 1.22736C9.0639 1.23361 10.6182 1.80651 12.4766 2.50045ZM6.5754 6.62538C8.28279 7.26298 8.88273 7.47264 9 7.47264C9.12618 7.47264 13.5374 5.87352 13.721 5.76115C13.7362 5.75188 13.7441 6.51004 13.7386 7.44604L13.7285 9.14781L13.6308 9.29545C12.4964 11.0091 5.50359 11.0091 4.36923 9.29545L4.27149 9.14781L4.26141 7.44604C4.25588 6.51004 4.2638 5.75188 4.27901 5.76115C4.29422 5.77047 5.32759 6.15936 6.5754 6.62538Z" fill="white"/>
</svg>
