<svg width="40" height="41" viewBox="0 0 40 41" fill="none" xmlns="http://www.w3.org/2000/svg">
<path fill-rule="evenodd" clip-rule="evenodd" d="M9.12489 0.103737C4.66805 0.861807 1.12852 4.28353 0.159666 8.7707C-0.053222 9.75677 -0.053222 30.2563 0.159666 31.2424C1.0993 35.5942 4.41232 38.9072 8.76417 39.8469C9.75024 40.0597 30.2498 40.0597 31.2358 39.8469C35.5877 38.9072 38.9007 35.5942 39.8403 31.2424C40.0532 30.2563 40.0532 9.75677 39.8403 8.7707C38.9049 4.43827 35.7345 1.24455 31.2991 0.166793C30.5678 -0.0108642 10.1404 -0.0690156 9.12489 0.103737ZM30.4389 2.52488C34.0686 3.17385 36.8327 5.93789 37.4816 9.5676C37.6478 10.4971 37.6478 29.5159 37.4816 30.4455C36.8327 34.0752 34.0686 36.8392 30.4389 37.4882C29.5094 37.6543 10.4906 37.6543 9.56108 37.4882C5.93137 36.8392 3.16732 34.0752 2.51835 30.4455C2.3522 29.5159 2.3522 10.4971 2.51835 9.5676C3.16082 5.97413 5.90244 3.20478 9.48291 2.53248C10.328 2.37384 29.5549 2.36684 30.4389 2.52488ZM30.9557 5.07783C29.3407 5.39501 28.2194 6.85981 28.306 8.53899C28.5133 12.5528 34.2931 12.8407 34.9511 8.86998C35.3301 6.58266 33.2664 4.62403 30.9557 5.07783ZM32.1521 7.61528C32.6872 7.96588 32.6747 8.74828 32.1281 9.1154C31.3186 9.65928 30.3622 8.73587 30.8708 7.90153C31.15 7.44372 31.7019 7.32031 32.1521 7.61528ZM18.7489 9.06215C9.60141 10.1823 5.73059 21.2886 12.2243 27.7822C17.9807 33.5386 27.8537 31.2302 30.4312 23.5252C32.9772 15.9147 26.6596 8.0933 18.7489 9.06215ZM21.4662 11.5689C25.4393 12.1698 28.5409 15.8689 28.5409 20.0065C28.5409 27.6224 19.3618 31.4193 13.9745 26.0321C8.07466 20.1321 13.161 10.3128 21.4662 11.5689Z" fill="white"/>
</svg>
