<svg width="42" height="41" viewBox="0 0 42 41" fill="none" xmlns="http://www.w3.org/2000/svg">
<path d="M8.81393 9.32355L8.87792 9.4004L8.81393 9.32355C5.9041 11.7465 1.56339 8.86423 2.67872 5.253C3.27549 3.32096 5.35111 2.1427 7.26818 2.64202C10.3259 3.43846 11.22 7.32015 8.81393 9.32355ZM24.1089 14.6297L23.7698 14.9469L23.7688 14.6793C23.7675 14.2821 23.7479 13.957 23.6404 13.7015C23.5288 13.4362 23.3272 13.2555 22.9918 13.1343C22.6624 13.0153 22.1977 12.951 21.5475 12.9155C20.8955 12.8799 20.0471 12.8729 18.9457 12.8729C17.1125 12.8729 16.1595 12.8757 15.6063 12.9331C15.3282 12.9619 15.1426 13.0053 14.9935 13.0734C14.8436 13.142 14.7375 13.2326 14.6176 13.341L14.6176 13.341C14.5972 13.3594 14.5785 13.3752 14.5592 13.3914C14.5509 13.3984 14.5425 13.4055 14.5338 13.4129C14.5062 13.4365 14.4775 13.4621 14.45 13.4925C14.3928 13.5557 14.347 13.6331 14.3101 13.7523C14.239 13.9817 14.1967 14.3824 14.1703 15.1808C14.122 16.6418 14.1269 19.4767 14.1365 25.1404C14.1374 25.6945 14.1384 26.2757 14.1394 26.8853L14.1599 39.4862L14.1599 39.5147L14.175 39.5388L14.3536 39.8261L14.4385 39.7733L14.3536 39.8261C14.3593 39.8352 14.3648 39.8442 14.3704 39.8532C14.4564 39.9919 14.5337 40.1167 14.6639 40.2107C14.8038 40.3118 14.9944 40.3714 15.3001 40.4098C15.8928 40.484 16.9789 40.4836 19.1266 40.4829L19.3023 40.4828C21.3071 40.4822 22.3143 40.4818 22.8577 40.4597C23.1289 40.4487 23.2914 40.4321 23.4071 40.4053C23.5279 40.3773 23.5957 40.3385 23.6736 40.294L23.6738 40.2939C23.7272 40.2634 23.7708 40.2428 23.8143 40.2223C23.8406 40.2099 23.8668 40.1975 23.8952 40.1829C23.9656 40.1469 24.0345 40.1033 24.0932 40.0279C24.2059 39.8833 24.2644 39.6416 24.3023 39.1698C24.3666 38.3695 24.3742 36.829 24.3892 33.759C24.3921 33.1673 24.3953 32.5188 24.3992 31.8078C24.4021 31.2871 24.4046 30.8005 24.407 30.3454C24.4243 27.0581 24.4329 25.4187 24.4874 24.5036C24.5185 23.9834 24.564 23.7057 24.6314 23.4957C24.6824 23.3365 24.7456 23.2156 24.8312 23.0517C24.8596 22.9973 24.8905 22.9381 24.9243 22.8713C25.6414 21.4505 27.1162 20.8718 28.493 21.0385C29.8695 21.2052 31.1296 22.1145 31.4243 23.6548C31.4697 23.8924 31.4985 24.3458 31.5154 25.5313C31.5323 26.7132 31.5375 28.6148 31.5382 31.7417C31.5383 32.2304 31.5383 32.689 31.5382 33.1195C31.5381 36.4069 31.538 38.0563 31.5991 38.9262C31.6335 39.4152 31.6878 39.6769 31.7847 39.8467C31.8615 39.9815 31.967 40.0563 32.0767 40.1341C32.1064 40.1552 32.1365 40.1765 32.1664 40.1993L32.4616 40.4245L32.4882 40.4448L32.5216 40.445L36.1202 40.4682L36.2425 40.469C38.1813 40.4815 39.1589 40.4878 39.6996 40.4461C39.976 40.4247 40.1492 40.3903 40.2818 40.332C40.4094 40.276 40.4933 40.2001 40.5876 40.1148L40.6021 40.1017L40.5425 40.0357L40.6021 40.1016C40.6246 40.0814 40.6474 40.0624 40.6702 40.0434C40.7616 39.9674 40.8525 39.8919 40.9161 39.7343C40.9918 39.5469 41.035 39.2388 41.0615 38.6381C41.109 37.5605 41.1035 35.4914 41.0923 31.361C41.091 30.8588 41.0896 30.3261 41.0881 29.761L41.0639 20.1958L41.0639 20.183L41.0607 20.1706L40.8769 19.4707L40.7882 19.494L40.8769 19.4707C39.9094 15.7864 37.3404 13.2725 33.6893 12.4406L33.667 12.5381L33.6893 12.4406C33.2639 12.3437 32.2362 12.2863 31.2133 12.273C30.1898 12.2597 29.1468 12.2902 28.6895 12.3753C26.9468 12.6994 25.3147 13.5017 24.1089 14.6297ZM11.1084 38.9142L11.1189 38.8931L11.1189 38.8696L11.1181 26.7213L11.1174 14.573L11.1174 14.5506L11.1078 14.5303L10.9231 14.1399C10.9231 14.1399 10.9231 14.1398 10.9231 14.1398C10.6985 13.6647 10.4033 13.3702 9.8935 13.1051C9.85554 13.0854 9.79908 13.0714 9.73886 13.0599C9.67497 13.0477 9.59446 13.0361 9.50048 13.0252C9.31232 13.0033 9.06485 12.9832 8.77757 12.9652C8.20269 12.9293 7.46383 12.9017 6.71148 12.8855C5.95907 12.8693 5.19214 12.8646 4.56102 12.8745C3.93441 12.8844 3.43055 12.9088 3.21225 12.9535C2.51391 13.0968 1.96084 13.5724 1.70919 14.2449L1.80285 14.28L1.70919 14.2449C1.69649 14.2789 1.68818 14.3341 1.68127 14.3955C1.67385 14.4615 1.6668 14.5478 1.66007 14.6525C1.6466 14.8622 1.63414 15.1496 1.62267 15.503C1.59972 16.21 1.5806 17.1845 1.56532 18.3368C1.53475 20.6416 1.51947 23.66 1.51947 26.6781C1.51947 29.6962 1.53475 32.7145 1.56532 35.0194C1.5806 36.1717 1.59972 37.1462 1.62267 37.8532C1.63414 38.2066 1.6466 38.494 1.66007 38.7037C1.6668 38.8084 1.67385 38.8948 1.68127 38.9607C1.68818 39.0221 1.69649 39.0774 1.70919 39.1113C1.82282 39.415 1.93272 39.6624 2.09685 39.8558C2.26399 40.0527 2.48135 40.1871 2.79743 40.2788C3.11029 40.3696 3.52343 40.4197 4.08651 40.4477C4.65058 40.4757 5.37184 40.4819 6.30358 40.4824C7.23728 40.4829 7.95569 40.4794 8.51549 40.4574C9.07437 40.4353 9.4812 40.3947 9.78951 40.3189C10.1005 40.2426 10.3157 40.1294 10.4873 39.9606C10.6561 39.7946 10.7762 39.5807 10.9069 39.3183L11.1084 38.9142ZM22.8677 31.6441V38.8784H19.3362H15.8047V26.6772V14.4767L19.0037 14.4965L22.2057 14.5162L22.2429 16.5506L22.282 18.6824L22.2864 18.9223L22.4537 18.7503L23.5399 17.6337C24.1373 17.0196 24.8229 16.3112 25.0633 16.0596C26.0482 15.0293 27.3047 14.3572 28.9246 14.0003C29.3658 13.9032 30.2832 13.8592 31.2098 13.8675C32.1364 13.8759 33.0502 13.9365 33.4843 14.0416C35.8828 14.622 37.9549 16.3833 38.8648 18.6119C38.9157 18.7368 38.9618 18.8447 39.0036 18.9427C39.0983 19.1644 39.1712 19.3354 39.2302 19.5365C39.314 19.8224 39.3686 20.1685 39.404 20.7974C39.4643 21.8679 39.4685 23.7377 39.4768 27.4855C39.4783 28.1509 39.4799 28.8756 39.482 29.6655L39.5064 38.8784H36.3635H33.2201L33.2117 35.9127C33.201 32.0824 33.1714 28.9594 33.1266 26.7319C33.1042 25.6183 33.078 24.7279 33.0484 24.0848C33.0336 23.7632 33.0179 23.5027 33.0014 23.3066C32.9852 23.1142 32.9676 22.9746 32.9465 22.9017C31.7685 18.8229 26.0843 18.1295 23.74 21.7565C23.7307 21.7708 23.7215 21.785 23.7124 21.7991C23.5107 22.111 23.3518 22.3566 23.232 22.6672C23.1064 22.9927 23.0252 23.3847 22.9719 23.9977C22.8676 25.1949 22.8676 27.2628 22.8677 31.3818V31.6441ZM9.34314 14.679L9.34316 14.679L9.51316 14.8387V26.7251V38.6061L9.34552 38.7379L9.40733 38.8165L9.3455 38.7379C9.30106 38.7728 9.26972 38.7942 9.20733 38.8118C9.13894 38.8311 9.03196 38.8461 8.83664 38.8565C8.44717 38.8772 7.73775 38.8784 6.35552 38.8784H3.55096L3.35193 38.6794L3.15301 38.4804L3.1541 26.7427C3.15455 22.0969 3.16003 19.1423 3.17504 17.3301C3.18255 16.4239 3.19244 15.8041 3.20525 15.4016C3.21166 15.2002 3.21876 15.0544 3.22655 14.9548C3.23046 14.9049 3.23442 14.868 3.23831 14.8423C3.24166 14.8201 3.24415 14.8121 3.24394 14.8121C3.29141 14.7185 3.32356 14.6677 3.38162 14.6291C3.44344 14.5879 3.5463 14.5533 3.75213 14.5298C4.16411 14.4828 4.92483 14.4855 6.42376 14.4965L9.17027 14.5165L9.34314 14.679ZM5.17823 1.0368C0.955338 2.00737 -0.538593 7.15838 2.51346 10.2277C5.86011 13.5934 11.5218 11.4064 11.7991 6.647C12.0077 3.06682 8.66651 0.234971 5.17823 1.0368Z" fill="white" stroke="white" stroke-width="0.2"/>
</svg>
